<svg width="180" height="20" viewBox="0 0 180 20" fill="none" xmlns="http://www.w3.org/2000/svg">
<path d="M11.225 19L7.85 14.125H7.65H4.125V19H0.0750001V1.5H7.65C9.2 1.5 10.5417 1.75833 11.675 2.275C12.825 2.79167 13.7083 3.525 14.325 4.475C14.9417 5.425 15.25 6.55 15.25 7.85C15.25 9.15 14.9333 10.275 14.3 11.225C13.6833 12.1583 12.8 12.875 11.65 13.375L15.575 19H11.225ZM11.15 7.85C11.15 6.86667 10.8333 6.11667 10.2 5.6C9.56667 5.06667 8.64167 4.8 7.425 4.8H4.125V10.9H7.425C8.64167 10.9 9.56667 10.6333 10.2 10.1C10.8333 9.56667 11.15 8.81667 11.15 7.85ZM31.3588 12.325C31.3588 12.375 31.3338 12.725 31.2838 13.375H21.1088C21.2921 14.2083 21.7255 14.8667 22.4088 15.35C23.0921 15.8333 23.9421 16.075 24.9588 16.075C25.6588 16.075 26.2755 15.975 26.8088 15.775C27.3588 15.5583 27.8671 15.225 28.3338 14.775L30.4088 17.025C29.1421 18.475 27.2921 19.2 24.8588 19.2C23.3421 19.2 22.0005 18.9083 20.8338 18.325C19.6671 17.725 18.7671 16.9 18.1338 15.85C17.5005 14.8 17.1838 13.6083 17.1838 12.275C17.1838 10.9583 17.4921 9.775 18.1088 8.725C18.7421 7.65833 19.6005 6.83333 20.6838 6.25C21.7838 5.65 23.0088 5.35 24.3588 5.35C25.6755 5.35 26.8671 5.63333 27.9338 6.2C29.0005 6.76667 29.8338 7.58333 30.4338 8.65C31.0505 9.7 31.3588 10.925 31.3588 12.325ZM24.3838 8.3C23.5005 8.3 22.7588 8.55 22.1588 9.05C21.5588 9.55 21.1921 10.2333 21.0588 11.1H27.6838C27.5505 10.25 27.1838 9.575 26.5838 9.075C25.9838 8.55833 25.2505 8.3 24.3838 8.3ZM38.4803 19.2C37.3636 19.2 36.2719 19.0667 35.2053 18.8C34.1386 18.5167 33.2886 18.1667 32.6553 17.75L33.9553 14.95C34.5553 15.3333 35.2803 15.65 36.1303 15.9C36.9803 16.1333 37.8136 16.25 38.6303 16.25C40.2803 16.25 41.1053 15.8417 41.1053 15.025C41.1053 14.6417 40.8803 14.3667 40.4303 14.2C39.9803 14.0333 39.2886 13.8917 38.3553 13.775C37.2553 13.6083 36.3469 13.4167 35.6303 13.2C34.9136 12.9833 34.2886 12.6 33.7553 12.05C33.2386 11.5 32.9803 10.7167 32.9803 9.7C32.9803 8.85 33.2219 8.1 33.7053 7.45C34.2053 6.78333 34.9219 6.26667 35.8553 5.9C36.8053 5.53333 37.9219 5.35 39.2053 5.35C40.1553 5.35 41.0969 5.45833 42.0303 5.675C42.9803 5.875 43.7636 6.15833 44.3803 6.525L43.0803 9.3C41.8969 8.63333 40.6053 8.3 39.2053 8.3C38.3719 8.3 37.7469 8.41667 37.3303 8.65C36.9136 8.88333 36.7053 9.18333 36.7053 9.55C36.7053 9.96667 36.9303 10.2583 37.3803 10.425C37.8303 10.5917 38.5469 10.75 39.5303 10.9C40.6303 11.0833 41.5303 11.2833 42.2303 11.5C42.9303 11.7 43.5386 12.075 44.0553 12.625C44.5719 13.175 44.8303 13.9417 44.8303 14.925C44.8303 15.7583 44.5803 16.5 44.0803 17.15C43.5803 17.8 42.8469 18.3083 41.8803 18.675C40.9303 19.025 39.7969 19.2 38.4803 19.2ZM60.4115 12.325C60.4115 12.375 60.3865 12.725 60.3365 13.375H50.1615C50.3449 14.2083 50.7782 14.8667 51.4615 15.35C52.1449 15.8333 52.9949 16.075 54.0115 16.075C54.7115 16.075 55.3282 15.975 55.8615 15.775C56.4115 15.5583 56.9199 15.225 57.3865 14.775L59.4615 17.025C58.1949 18.475 56.3449 19.2 53.9115 19.2C52.3949 19.2 51.0532 18.9083 49.8865 18.325C48.7199 17.725 47.8199 16.9 47.1865 15.85C46.5532 14.8 46.2365 13.6083 46.2365 12.275C46.2365 10.9583 46.5449 9.775 47.1615 8.725C47.7949 7.65833 48.6532 6.83333 49.7365 6.25C50.8365 5.65 52.0615 5.35 53.4115 5.35C54.7282 5.35 55.9199 5.63333 56.9865 6.2C58.0532 6.76667 58.8865 7.58333 59.4865 8.65C60.1032 9.7 60.4115 10.925 60.4115 12.325ZM53.4365 8.3C52.5532 8.3 51.8115 8.55 51.2115 9.05C50.6115 9.55 50.2449 10.2333 50.1115 11.1H56.7365C56.6032 10.25 56.2365 9.575 55.6365 9.075C55.0365 8.55833 54.3032 8.3 53.4365 8.3ZM63.008 0.449999H66.908V19H63.008V0.449999ZM70.5275 0.449999H74.4275V19H70.5275V0.449999ZM91.2221 12.325C91.2221 12.375 91.1971 12.725 91.1471 13.375H80.9721C81.1554 14.2083 81.5887 14.8667 82.2721 15.35C82.9554 15.8333 83.8054 16.075 84.8221 16.075C85.5221 16.075 86.1387 15.975 86.6721 15.775C87.2221 15.5583 87.7304 15.225 88.1971 14.775L90.2721 17.025C89.0054 18.475 87.1554 19.2 84.7221 19.2C83.2054 19.2 81.8637 18.9083 80.6971 18.325C79.5304 17.725 78.6304 16.9 77.9971 15.85C77.3637 14.8 77.0471 13.6083 77.0471 12.275C77.0471 10.9583 77.3554 9.775 77.9721 8.725C78.6054 7.65833 79.4637 6.83333 80.5471 6.25C81.6471 5.65 82.8721 5.35 84.2221 5.35C85.5387 5.35 86.7304 5.63333 87.7971 6.2C88.8637 6.76667 89.6971 7.58333 90.2971 8.65C90.9137 9.7 91.2221 10.925 91.2221 12.325ZM84.2471 8.3C83.3637 8.3 82.6221 8.55 82.0221 9.05C81.4221 9.55 81.0554 10.2333 80.9221 11.1H87.5471C87.4137 10.25 87.0471 9.575 86.4471 9.075C85.8471 8.55833 85.1137 8.3 84.2471 8.3Z" fill="black"/>
<path d="M106.944 9.9C107.944 10.2167 108.727 10.75 109.294 11.5C109.86 12.2333 110.144 13.1417 110.144 14.225C110.144 15.7583 109.544 16.9417 108.344 17.775C107.16 18.5917 105.427 19 103.144 19H94.0936V1.5H102.644C104.777 1.5 106.41 1.90833 107.544 2.725C108.694 3.54167 109.269 4.65 109.269 6.05C109.269 6.9 109.06 7.65833 108.644 8.325C108.244 8.99167 107.677 9.51667 106.944 9.9ZM98.1186 4.55V8.675H102.144C103.144 8.675 103.902 8.5 104.419 8.15C104.935 7.8 105.194 7.28333 105.194 6.6C105.194 5.91667 104.935 5.40833 104.419 5.075C103.902 4.725 103.144 4.55 102.144 4.55H98.1186ZM102.844 15.95C103.91 15.95 104.71 15.775 105.244 15.425C105.794 15.075 106.069 14.5333 106.069 13.8C106.069 12.35 104.994 11.625 102.844 11.625H98.1186V15.95H102.844ZM118.36 5.35C120.443 5.35 122.043 5.85 123.16 6.85C124.276 7.83333 124.835 9.325 124.835 11.325V19H121.185V17.325C120.451 18.575 119.085 19.2 117.085 19.2C116.051 19.2 115.151 19.025 114.385 18.675C113.635 18.325 113.06 17.8417 112.66 17.225C112.26 16.6083 112.06 15.9083 112.06 15.125C112.06 13.875 112.526 12.8917 113.46 12.175C114.41 11.4583 115.868 11.1 117.835 11.1H120.935C120.935 10.25 120.676 9.6 120.16 9.15C119.643 8.68333 118.868 8.45 117.835 8.45C117.118 8.45 116.41 8.56667 115.71 8.8C115.026 9.01667 114.443 9.31667 113.96 9.7L112.56 6.975C113.293 6.45833 114.168 6.05833 115.185 5.775C116.218 5.49167 117.276 5.35 118.36 5.35ZM118.06 16.575C118.726 16.575 119.318 16.425 119.835 16.125C120.351 15.8083 120.718 15.35 120.935 14.75V13.375H118.26C116.66 13.375 115.86 13.9 115.86 14.95C115.86 15.45 116.051 15.85 116.435 16.15C116.835 16.4333 117.376 16.575 118.06 16.575ZM139.439 16V19H127.439V16.65L134.289 8.55H127.614V5.55H139.214V7.9L132.364 16H139.439ZM153.014 16V19H141.014V16.65L147.864 8.55H141.189V5.55H152.789V7.9L145.939 16H153.014ZM160.938 5.35C163.021 5.35 164.621 5.85 165.738 6.85C166.855 7.83333 167.413 9.325 167.413 11.325V19H163.763V17.325C163.03 18.575 161.663 19.2 159.663 19.2C158.63 19.2 157.73 19.025 156.963 18.675C156.213 18.325 155.638 17.8417 155.238 17.225C154.838 16.6083 154.638 15.9083 154.638 15.125C154.638 13.875 155.105 12.8917 156.038 12.175C156.988 11.4583 158.446 11.1 160.413 11.1H163.513C163.513 10.25 163.255 9.6 162.738 9.15C162.221 8.68333 161.446 8.45 160.413 8.45C159.696 8.45 158.988 8.56667 158.288 8.8C157.605 9.01667 157.021 9.31667 156.538 9.7L155.138 6.975C155.871 6.45833 156.746 6.05833 157.763 5.775C158.796 5.49167 159.855 5.35 160.938 5.35ZM160.638 16.575C161.305 16.575 161.896 16.425 162.413 16.125C162.93 15.8083 163.296 15.35 163.513 14.75V13.375H160.838C159.238 13.375 158.438 13.9 158.438 14.95C158.438 15.45 158.63 15.85 159.013 16.15C159.413 16.4333 159.955 16.575 160.638 16.575ZM174.668 7.325C175.134 6.675 175.759 6.18333 176.543 5.85C177.343 5.51667 178.259 5.35 179.293 5.35V8.95C178.859 8.91667 178.568 8.9 178.418 8.9C177.301 8.9 176.426 9.21667 175.793 9.85C175.159 10.4667 174.843 11.4 174.843 12.65V19H170.943V5.55H174.668V7.325Z" fill="#D10024"/>
</svg>
