<svg width="232" height="37" viewBox="0 0 232 37" fill="none" xmlns="http://www.w3.org/2000/svg">
<g filter="url(#filter0_d)">
<path d="M16.08 3.25C17.94 3.25 19.55 3.56 20.91 4.18C22.29 4.8 23.35 5.68 24.09 6.82C24.83 7.96 25.2 9.31 25.2 10.87C25.2 12.41 24.83 13.76 24.09 14.92C23.35 16.06 22.29 16.94 20.91 17.56C19.55 18.16 17.94 18.46 16.08 18.46H11.85V24.25H6.99V3.25H16.08ZM15.81 14.5C17.27 14.5 18.38 14.19 19.14 13.57C19.9 12.93 20.28 12.03 20.28 10.87C20.28 9.69 19.9 8.79 19.14 8.17C18.38 7.53 17.27 7.21 15.81 7.21H11.85V14.5H15.81ZM32.8097 10.24C33.3697 9.46 34.1197 8.87 35.0597 8.47C36.0197 8.07 37.1197 7.87 38.3597 7.87V12.19C37.8397 12.15 37.4897 12.13 37.3097 12.13C35.9697 12.13 34.9197 12.51 34.1597 13.27C33.3997 14.01 33.0197 15.13 33.0197 16.63V24.25H28.3397V8.11H32.8097V10.24ZM48.6759 24.49C46.9759 24.49 45.4459 24.14 44.0859 23.44C42.7459 22.72 41.6959 21.73 40.9359 20.47C40.1759 19.21 39.7959 17.78 39.7959 16.18C39.7959 14.58 40.1759 13.15 40.9359 11.89C41.6959 10.63 42.7459 9.65 44.0859 8.95C45.4459 8.23 46.9759 7.87 48.6759 7.87C50.3759 7.87 51.8959 8.23 53.2359 8.95C54.5759 9.65 55.6259 10.63 56.3859 11.89C57.1459 13.15 57.5259 14.58 57.5259 16.18C57.5259 17.78 57.1459 19.21 56.3859 20.47C55.6259 21.73 54.5759 22.72 53.2359 23.44C51.8959 24.14 50.3759 24.49 48.6759 24.49ZM48.6759 20.65C49.8759 20.65 50.8559 20.25 51.6159 19.45C52.3959 18.63 52.7859 17.54 52.7859 16.18C52.7859 14.82 52.3959 13.74 51.6159 12.94C50.8559 12.12 49.8759 11.71 48.6759 11.71C47.4759 11.71 46.4859 12.12 45.7059 12.94C44.9259 13.74 44.5359 14.82 44.5359 16.18C44.5359 17.54 44.9259 18.63 45.7059 19.45C46.4859 20.25 47.4759 20.65 48.6759 20.65ZM65.7841 8.47H69.9241V12.07H65.9041V24.25H61.2241V12.07H58.7341V8.47H61.2241V7.75C61.2241 5.91 61.7641 4.45 62.8441 3.37C63.9441 2.29 65.4841 1.75 67.4641 1.75C68.1641 1.75 68.8241 1.83 69.4441 1.99C70.0841 2.13 70.6141 2.34 71.0341 2.62L69.8041 6.01C69.2641 5.63 68.6341 5.44 67.9141 5.44C66.4941 5.44 65.7841 6.22 65.7841 7.78V8.47ZM74.6641 8.11H79.3441V24.25H74.6641V8.11ZM77.0041 5.86C76.1441 5.86 75.4441 5.61 74.9041 5.11C74.3641 4.61 74.0941 3.99 74.0941 3.25C74.0941 2.51 74.3641 1.89 74.9041 1.39C75.4441 0.889999 76.1441 0.639998 77.0041 0.639998C77.8641 0.639998 78.5641 0.879999 79.1041 1.36C79.6441 1.84 79.9141 2.44 79.9141 3.16C79.9141 3.94 79.6441 4.59 79.1041 5.11C78.5641 5.61 77.8641 5.86 77.0041 5.86ZM83.6815 1.99H88.3615V24.25H83.6815V1.99ZM108.515 16.24C108.515 16.3 108.485 16.72 108.425 17.5H96.2149C96.4349 18.5 96.9549 19.29 97.7749 19.87C98.5949 20.45 99.6149 20.74 100.835 20.74C101.675 20.74 102.415 20.62 103.055 20.38C103.715 20.12 104.325 19.72 104.885 19.18L107.375 21.88C105.855 23.62 103.635 24.49 100.715 24.49C98.8949 24.49 97.2849 24.14 95.8849 23.44C94.4849 22.72 93.4049 21.73 92.6449 20.47C91.8849 19.21 91.5049 17.78 91.5049 16.18C91.5049 14.6 91.8749 13.18 92.6149 11.92C93.3749 10.64 94.4049 9.65 95.7049 8.95C97.0249 8.23 98.4949 7.87 100.115 7.87C101.695 7.87 103.125 8.21 104.405 8.89C105.685 9.57 106.685 10.55 107.405 11.83C108.145 13.09 108.515 14.56 108.515 16.24ZM100.145 11.41C99.0849 11.41 98.1949 11.71 97.4749 12.31C96.7549 12.91 96.3149 13.73 96.1549 14.77H104.105C103.945 13.75 103.505 12.94 102.785 12.34C102.065 11.72 101.185 11.41 100.145 11.41Z" fill="black"/>
<path d="M120.457 3.25H129.997C132.277 3.25 134.287 3.69 136.027 4.57C137.787 5.43 139.147 6.65 140.107 8.23C141.087 9.81 141.577 11.65 141.577 13.75C141.577 15.85 141.087 17.69 140.107 19.27C139.147 20.85 137.787 22.08 136.027 22.96C134.287 23.82 132.277 24.25 129.997 24.25H120.457V3.25ZM129.757 20.26C131.857 20.26 133.527 19.68 134.767 18.52C136.027 17.34 136.657 15.75 136.657 13.75C136.657 11.75 136.027 10.17 134.767 9.01C133.527 7.83 131.857 7.24 129.757 7.24H125.317V20.26H129.757ZM160.722 16.24C160.722 16.3 160.692 16.72 160.632 17.5H148.422C148.642 18.5 149.162 19.29 149.982 19.87C150.802 20.45 151.822 20.74 153.042 20.74C153.882 20.74 154.622 20.62 155.262 20.38C155.922 20.12 156.532 19.72 157.092 19.18L159.582 21.88C158.062 23.62 155.842 24.49 152.922 24.49C151.102 24.49 149.492 24.14 148.092 23.44C146.692 22.72 145.612 21.73 144.852 20.47C144.092 19.21 143.712 17.78 143.712 16.18C143.712 14.6 144.082 13.18 144.822 11.92C145.582 10.64 146.612 9.65 147.912 8.95C149.232 8.23 150.702 7.87 152.322 7.87C153.902 7.87 155.332 8.21 156.612 8.89C157.892 9.57 158.892 10.55 159.612 11.83C160.352 13.09 160.722 14.56 160.722 16.24ZM152.352 11.41C151.292 11.41 150.402 11.71 149.682 12.31C148.962 12.91 148.522 13.73 148.362 14.77H156.312C156.152 13.75 155.712 12.94 154.992 12.34C154.272 11.72 153.392 11.41 152.352 11.41ZM174.248 23.47C173.788 23.81 173.218 24.07 172.538 24.25C171.878 24.41 171.178 24.49 170.438 24.49C168.518 24.49 167.028 24 165.968 23.02C164.928 22.04 164.408 20.6 164.408 18.7V12.07H161.918V8.47H164.408V4.54H169.088V8.47H173.108V12.07H169.088V18.64C169.088 19.32 169.258 19.85 169.598 20.23C169.958 20.59 170.458 20.77 171.098 20.77C171.838 20.77 172.468 20.57 172.988 20.17L174.248 23.47ZM183.385 7.87C185.885 7.87 187.805 8.47 189.145 9.67C190.485 10.85 191.155 12.64 191.155 15.04V24.25H186.775V22.24C185.895 23.74 184.255 24.49 181.855 24.49C180.615 24.49 179.535 24.28 178.615 23.86C177.715 23.44 177.025 22.86 176.545 22.12C176.065 21.38 175.825 20.54 175.825 19.6C175.825 18.1 176.385 16.92 177.505 16.06C178.645 15.2 180.395 14.77 182.755 14.77H186.475C186.475 13.75 186.165 12.97 185.545 12.43C184.925 11.87 183.995 11.59 182.755 11.59C181.895 11.59 181.045 11.73 180.205 12.01C179.385 12.27 178.685 12.63 178.105 13.09L176.425 9.82C177.305 9.2 178.355 8.72 179.575 8.38C180.815 8.04 182.085 7.87 183.385 7.87ZM183.025 21.34C183.825 21.34 184.535 21.16 185.155 20.8C185.775 20.42 186.215 19.87 186.475 19.15V17.5H183.265C181.345 17.5 180.385 18.13 180.385 19.39C180.385 19.99 180.615 20.47 181.075 20.83C181.555 21.17 182.205 21.34 183.025 21.34ZM195.39 8.11H200.07V24.25H195.39V8.11ZM197.73 5.86C196.87 5.86 196.17 5.61 195.63 5.11C195.09 4.61 194.82 3.99 194.82 3.25C194.82 2.51 195.09 1.89 195.63 1.39C196.17 0.889999 196.87 0.639998 197.73 0.639998C198.59 0.639998 199.29 0.879999 199.83 1.36C200.37 1.84 200.64 2.44 200.64 3.16C200.64 3.94 200.37 4.59 199.83 5.11C199.29 5.61 198.59 5.86 197.73 5.86ZM204.414 1.99H209.094V24.25H204.414V1.99ZM218.867 24.49C217.527 24.49 216.217 24.33 214.937 24.01C213.657 23.67 212.637 23.25 211.877 22.75L213.437 19.39C214.157 19.85 215.027 20.23 216.047 20.53C217.067 20.81 218.067 20.95 219.047 20.95C221.027 20.95 222.017 20.46 222.017 19.48C222.017 19.02 221.747 18.69 221.207 18.49C220.667 18.29 219.837 18.12 218.717 17.98C217.397 17.78 216.307 17.55 215.447 17.29C214.587 17.03 213.837 16.57 213.197 15.91C212.577 15.25 212.267 14.31 212.267 13.09C212.267 12.07 212.557 11.17 213.137 10.39C213.737 9.59 214.597 8.97 215.717 8.53C216.857 8.09 218.197 7.87 219.737 7.87C220.877 7.87 222.007 8 223.127 8.26C224.267 8.5 225.207 8.84 225.947 9.28L224.387 12.61C222.967 11.81 221.417 11.41 219.737 11.41C218.737 11.41 217.987 11.55 217.487 11.83C216.987 12.11 216.737 12.47 216.737 12.91C216.737 13.41 217.007 13.76 217.547 13.96C218.087 14.16 218.947 14.35 220.127 14.53C221.447 14.75 222.527 14.99 223.367 15.25C224.207 15.49 224.937 15.94 225.557 16.6C226.177 17.26 226.487 18.18 226.487 19.36C226.487 20.36 226.187 21.25 225.587 22.03C224.987 22.81 224.107 23.42 222.947 23.86C221.807 24.28 220.447 24.49 218.867 24.49Z" fill="#D10024"/>
<path d="M4.5 27.25H117.961V28.75H4.5V27.25Z" fill="black"/>
<path d="M117.967 27.25H227.207V28.75H117.967V27.25Z" fill="#D10024"/>
</g>
<defs>
<filter id="filter0_d" x="0.5" y="0.640015" width="230.707" height="36.11" filterUnits="userSpaceOnUse" color-interpolation-filters="sRGB">
<feFlood flood-opacity="0" result="BackgroundImageFix"/>
<feColorMatrix in="SourceAlpha" type="matrix" values="0 0 0 0 0 0 0 0 0 0 0 0 0 0 0 0 0 0 127 0" result="hardAlpha"/>
<feOffset dy="4"/>
<feGaussianBlur stdDeviation="2"/>
<feComposite in2="hardAlpha" operator="out"/>
<feColorMatrix type="matrix" values="0 0 0 0 0 0 0 0 0 0 0 0 0 0 0 0 0 0 0.25 0"/>
<feBlend mode="normal" in2="BackgroundImageFix" result="effect1_dropShadow"/>
<feBlend mode="normal" in="SourceGraphic" in2="effect1_dropShadow" result="shape"/>
</filter>
</defs>
</svg>
