<svg width="198" height="20" viewBox="0 0 198 20" fill="none" xmlns="http://www.w3.org/2000/svg">
<path d="M11.225 19L7.85 14.125H7.65H4.125V19H0.0750001V1.5H7.65C9.2 1.5 10.5417 1.75833 11.675 2.275C12.825 2.79167 13.7083 3.525 14.325 4.475C14.9417 5.425 15.25 6.55 15.25 7.85C15.25 9.15 14.9333 10.275 14.3 11.225C13.6833 12.1583 12.8 12.875 11.65 13.375L15.575 19H11.225ZM11.15 7.85C11.15 6.86667 10.8333 6.11667 10.2 5.6C9.56667 5.06667 8.64167 4.8 7.425 4.8H4.125V10.9H7.425C8.64167 10.9 9.56667 10.6333 10.2 10.1C10.8333 9.56667 11.15 8.81667 11.15 7.85ZM31.3588 12.325C31.3588 12.375 31.3338 12.725 31.2838 13.375H21.1088C21.2921 14.2083 21.7255 14.8667 22.4088 15.35C23.0921 15.8333 23.9421 16.075 24.9588 16.075C25.6588 16.075 26.2755 15.975 26.8088 15.775C27.3588 15.5583 27.8671 15.225 28.3338 14.775L30.4088 17.025C29.1421 18.475 27.2921 19.2 24.8588 19.2C23.3421 19.2 22.0005 18.9083 20.8338 18.325C19.6671 17.725 18.7671 16.9 18.1338 15.85C17.5005 14.8 17.1838 13.6083 17.1838 12.275C17.1838 10.9583 17.4921 9.775 18.1088 8.725C18.7421 7.65833 19.6005 6.83333 20.6838 6.25C21.7838 5.65 23.0088 5.35 24.3588 5.35C25.6755 5.35 26.8671 5.63333 27.9338 6.2C29.0005 6.76667 29.8338 7.58333 30.4338 8.65C31.0505 9.7 31.3588 10.925 31.3588 12.325ZM24.3838 8.3C23.5005 8.3 22.7588 8.55 22.1588 9.05C21.5588 9.55 21.1921 10.2333 21.0588 11.1H27.6838C27.5505 10.25 27.1838 9.575 26.5838 9.075C25.9838 8.55833 25.2505 8.3 24.3838 8.3ZM38.4803 19.2C37.3636 19.2 36.2719 19.0667 35.2053 18.8C34.1386 18.5167 33.2886 18.1667 32.6553 17.75L33.9553 14.95C34.5553 15.3333 35.2803 15.65 36.1303 15.9C36.9803 16.1333 37.8136 16.25 38.6303 16.25C40.2803 16.25 41.1053 15.8417 41.1053 15.025C41.1053 14.6417 40.8803 14.3667 40.4303 14.2C39.9803 14.0333 39.2886 13.8917 38.3553 13.775C37.2553 13.6083 36.3469 13.4167 35.6303 13.2C34.9136 12.9833 34.2886 12.6 33.7553 12.05C33.2386 11.5 32.9803 10.7167 32.9803 9.7C32.9803 8.85 33.2219 8.1 33.7053 7.45C34.2053 6.78333 34.9219 6.26667 35.8553 5.9C36.8053 5.53333 37.9219 5.35 39.2053 5.35C40.1553 5.35 41.0969 5.45833 42.0303 5.675C42.9803 5.875 43.7636 6.15833 44.3803 6.525L43.0803 9.3C41.8969 8.63333 40.6053 8.3 39.2053 8.3C38.3719 8.3 37.7469 8.41667 37.3303 8.65C36.9136 8.88333 36.7053 9.18333 36.7053 9.55C36.7053 9.96667 36.9303 10.2583 37.3803 10.425C37.8303 10.5917 38.5469 10.75 39.5303 10.9C40.6303 11.0833 41.5303 11.2833 42.2303 11.5C42.9303 11.7 43.5386 12.075 44.0553 12.625C44.5719 13.175 44.8303 13.9417 44.8303 14.925C44.8303 15.7583 44.5803 16.5 44.0803 17.15C43.5803 17.8 42.8469 18.3083 41.8803 18.675C40.9303 19.025 39.7969 19.2 38.4803 19.2ZM60.4115 12.325C60.4115 12.375 60.3865 12.725 60.3365 13.375H50.1615C50.3449 14.2083 50.7782 14.8667 51.4615 15.35C52.1449 15.8333 52.9949 16.075 54.0115 16.075C54.7115 16.075 55.3282 15.975 55.8615 15.775C56.4115 15.5583 56.9199 15.225 57.3865 14.775L59.4615 17.025C58.1949 18.475 56.3449 19.2 53.9115 19.2C52.3949 19.2 51.0532 18.9083 49.8865 18.325C48.7199 17.725 47.8199 16.9 47.1865 15.85C46.5532 14.8 46.2365 13.6083 46.2365 12.275C46.2365 10.9583 46.5449 9.775 47.1615 8.725C47.7949 7.65833 48.6532 6.83333 49.7365 6.25C50.8365 5.65 52.0615 5.35 53.4115 5.35C54.7282 5.35 55.9199 5.63333 56.9865 6.2C58.0532 6.76667 58.8865 7.58333 59.4865 8.65C60.1032 9.7 60.4115 10.925 60.4115 12.325ZM53.4365 8.3C52.5532 8.3 51.8115 8.55 51.2115 9.05C50.6115 9.55 50.2449 10.2333 50.1115 11.1H56.7365C56.6032 10.25 56.2365 9.575 55.6365 9.075C55.0365 8.55833 54.3032 8.3 53.4365 8.3ZM63.008 0.449999H66.908V19H63.008V0.449999ZM70.5275 0.449999H74.4275V19H70.5275V0.449999ZM91.2221 12.325C91.2221 12.375 91.1971 12.725 91.1471 13.375H80.9721C81.1554 14.2083 81.5887 14.8667 82.2721 15.35C82.9554 15.8333 83.8054 16.075 84.8221 16.075C85.5221 16.075 86.1387 15.975 86.6721 15.775C87.2221 15.5583 87.7304 15.225 88.1971 14.775L90.2721 17.025C89.0054 18.475 87.1554 19.2 84.7221 19.2C83.2054 19.2 81.8637 18.9083 80.6971 18.325C79.5304 17.725 78.6304 16.9 77.9971 15.85C77.3637 14.8 77.0471 13.6083 77.0471 12.275C77.0471 10.9583 77.3554 9.775 77.9721 8.725C78.6054 7.65833 79.4637 6.83333 80.5471 6.25C81.6471 5.65 82.8721 5.35 84.2221 5.35C85.5387 5.35 86.7304 5.63333 87.7971 6.2C88.8637 6.76667 89.6971 7.58333 90.2971 8.65C90.9137 9.7 91.2221 10.925 91.2221 12.325ZM84.2471 8.3C83.3637 8.3 82.6221 8.55 82.0221 9.05C81.4221 9.55 81.0554 10.2333 80.9221 11.1H87.5471C87.4137 10.25 87.0471 9.575 86.4471 9.075C85.8471 8.55833 85.1137 8.3 84.2471 8.3ZM97.5436 7.325C98.0102 6.675 98.6352 6.18333 99.4186 5.85C100.219 5.51667 101.135 5.35 102.169 5.35V8.95C101.735 8.91667 101.444 8.9 101.294 8.9C100.177 8.9 99.3019 9.21667 98.6686 9.85C98.0352 10.4667 97.7186 11.4 97.7186 12.65V19H93.8186V5.55H97.5436V7.325Z" fill="white"/>
<path d="M124.79 9.9C125.79 10.2167 126.574 10.75 127.14 11.5C127.707 12.2333 127.99 13.1417 127.99 14.225C127.99 15.7583 127.39 16.9417 126.19 17.775C125.007 18.5917 123.274 19 120.99 19H111.94V1.5H120.49C122.624 1.5 124.257 1.90833 125.39 2.725C126.54 3.54167 127.115 4.65 127.115 6.05C127.115 6.9 126.907 7.65833 126.49 8.325C126.09 8.99167 125.524 9.51667 124.79 9.9ZM115.965 4.55V8.675H119.99C120.99 8.675 121.749 8.5 122.265 8.15C122.782 7.8 123.04 7.28333 123.04 6.6C123.04 5.91667 122.782 5.40833 122.265 5.075C121.749 4.725 120.99 4.55 119.99 4.55H115.965ZM120.69 15.95C121.757 15.95 122.557 15.775 123.09 15.425C123.64 15.075 123.915 14.5333 123.915 13.8C123.915 12.35 122.84 11.625 120.69 11.625H115.965V15.95H120.69ZM136.206 5.35C138.29 5.35 139.89 5.85 141.006 6.85C142.123 7.83333 142.681 9.325 142.681 11.325V19H139.031V17.325C138.298 18.575 136.931 19.2 134.931 19.2C133.898 19.2 132.998 19.025 132.231 18.675C131.481 18.325 130.906 17.8417 130.506 17.225C130.106 16.6083 129.906 15.9083 129.906 15.125C129.906 13.875 130.373 12.8917 131.306 12.175C132.256 11.4583 133.715 11.1 135.681 11.1H138.781C138.781 10.25 138.523 9.6 138.006 9.15C137.49 8.68333 136.715 8.45 135.681 8.45C134.965 8.45 134.256 8.56667 133.556 8.8C132.873 9.01667 132.29 9.31667 131.806 9.7L130.406 6.975C131.14 6.45833 132.015 6.05833 133.031 5.775C134.065 5.49167 135.123 5.35 136.206 5.35ZM135.906 16.575C136.573 16.575 137.165 16.425 137.681 16.125C138.198 15.8083 138.565 15.35 138.781 14.75V13.375H136.106C134.506 13.375 133.706 13.9 133.706 14.95C133.706 15.45 133.898 15.85 134.281 16.15C134.681 16.4333 135.223 16.575 135.906 16.575ZM157.286 16V19H145.286V16.65L152.136 8.55H145.461V5.55H157.061V7.9L150.211 16H157.286ZM170.86 16V19H158.86V16.65L165.71 8.55H159.035V5.55H170.635V7.9L163.785 16H170.86ZM178.785 5.35C180.868 5.35 182.468 5.85 183.585 6.85C184.701 7.83333 185.26 9.325 185.26 11.325V19H181.61V17.325C180.876 18.575 179.51 19.2 177.51 19.2C176.476 19.2 175.576 19.025 174.81 18.675C174.06 18.325 173.485 17.8417 173.085 17.225C172.685 16.6083 172.485 15.9083 172.485 15.125C172.485 13.875 172.951 12.8917 173.885 12.175C174.835 11.4583 176.293 11.1 178.26 11.1H181.36C181.36 10.25 181.101 9.6 180.585 9.15C180.068 8.68333 179.293 8.45 178.26 8.45C177.543 8.45 176.835 8.56667 176.135 8.8C175.451 9.01667 174.868 9.31667 174.385 9.7L172.985 6.975C173.718 6.45833 174.593 6.05833 175.61 5.775C176.643 5.49167 177.701 5.35 178.785 5.35ZM178.485 16.575C179.151 16.575 179.743 16.425 180.26 16.125C180.776 15.8083 181.143 15.35 181.36 14.75V13.375H178.685C177.085 13.375 176.285 13.9 176.285 14.95C176.285 15.45 176.476 15.85 176.86 16.15C177.26 16.4333 177.801 16.575 178.485 16.575ZM192.514 7.325C192.981 6.675 193.606 6.18333 194.389 5.85C195.189 5.51667 196.106 5.35 197.139 5.35V8.95C196.706 8.91667 196.414 8.9 196.264 8.9C195.148 8.9 194.273 9.21667 193.639 9.85C193.006 10.4667 192.689 11.4 192.689 12.65V19H188.789V5.55H192.514V7.325Z" fill="#D10024"/>
</svg>
